<svg xmlns="http://www.w3.org/2000/svg" xmlns:xlink="http://www.w3.org/1999/xlink" width="500" zoomAndPan="magnify" viewBox="0 0 375 374.999991" height="500" preserveAspectRatio="xMidYMid meet" version="1.0"><defs><clipPath id="e02d379088"><path d="M 143 185 L 230 185 L 230 262.5 L 143 262.5 Z M 143 185 " clip-rule="nonzero"/></clipPath></defs><path fill="#000000" d="M 207.175781 168.191406 C 200.136719 168.261719 192.511719 169.640625 188.71875 170.417969 C 188.183594 170.261719 187.457031 170.167969 186.652344 170.164062 C 185.847656 170.167969 185.121094 170.261719 184.585938 170.417969 C 180.792969 169.640625 173.164062 168.261719 166.125 168.191406 C 160.605469 168.136719 155.53125 170.066406 151.96875 171.585938 C 151.78125 172.738281 151.625 173.996094 151.515625 175.382812 C 152.683594 175.480469 155.445312 176.101562 155.554688 176.914062 L 156.769531 182.214844 C 157.175781 185.257812 159.84375 187.539062 163.003906 187.539062 L 173.148438 187.539062 C 177.484375 187.539062 181.242188 187.605469 182.191406 183.488281 L 184.242188 175.367188 C 184.242188 174.972656 185.320312 174.65625 186.652344 174.652344 C 187.984375 174.65625 189.0625 174.972656 189.0625 175.367188 L 191.113281 183.488281 C 192.0625 187.605469 195.820312 187.539062 200.15625 187.539062 L 210.300781 187.539062 C 213.460938 187.539062 216.125 185.257812 216.535156 182.214844 L 217.75 176.914062 C 217.863281 176.058594 220.921875 175.414062 221.960938 175.371094 C 221.949219 174.347656 221.960938 173.160156 221.980469 171.867188 C 218.402344 170.316406 213.042969 168.132812 207.175781 168.191406 " fill-opacity="1" fill-rule="nonzero"/><path fill="#000000" d="M 226.011719 151.484375 C 235.21875 148.339844 234.839844 129.59375 234.839844 129.59375 C 228.484375 134.339844 221.320312 131.480469 215.84375 130.4375 C 218.511719 130.191406 222.09375 129.097656 225.367188 125.578125 C 220.496094 126.5 216.609375 121.707031 211.613281 121.378906 C 208.171875 121.152344 205.011719 121.863281 203.511719 122.898438 C 203.511719 122.898438 205.054688 118.449219 210.964844 118.390625 C 201.050781 112.507812 190.292969 116.484375 186.074219 122.300781 C 186.074219 122.300781 185.851562 116.4375 192.398438 114.335938 C 179.605469 113.945312 157.675781 117.917969 154.050781 140.519531 C 154.050781 140.519531 152.203125 137.4375 151.808594 133.226562 C 139.96875 145.742188 147.746094 167.964844 148.359375 178.472656 L 150.429688 178.472656 C 151.195312 162.691406 157.160156 161.519531 159.039062 152.820312 C 159.457031 150.871094 156.726562 145.660156 156.726562 145.660156 L 159.777344 149.734375 C 160.320312 150.460938 161.28125 150.496094 162.074219 150.050781 C 189.46875 134.738281 214.449219 150.960938 220.980469 144.09375 C 220.980469 144.09375 220.136719 148.03125 216.894531 150.382812 C 219.234375 151.34375 220.894531 154.105469 222.074219 157.546875 C 223.652344 162.152344 222.667969 174.140625 222.992188 178.472656 L 224.960938 178.472656 C 233.390625 154.445312 233.257812 147.214844 233.257812 147.214844 C 230.035156 152.289062 226.011719 151.484375 226.011719 151.484375 " fill-opacity="1" fill-rule="nonzero"/><g clip-path="url(#e02d379088)"><path fill="#000000" d="M 166.488281 215.777344 C 168.476562 215.511719 170.953125 214.9375 173.113281 214.042969 C 172.078125 215.160156 170.964844 215.179688 170.503906 215.445312 C 177.867188 215.566406 180.519531 209.347656 180.519531 209.347656 C 180.519531 209.347656 180.410156 211.796875 178.789062 212.878906 C 179.449219 212.503906 186.652344 210.933594 186.652344 204.015625 C 186.652344 210.933594 193.851562 212.503906 194.515625 212.878906 C 192.894531 211.796875 192.785156 209.347656 192.785156 209.347656 C 192.785156 209.347656 195.4375 215.566406 202.800781 215.445312 C 202.335938 215.179688 201.222656 215.160156 200.191406 214.042969 C 202.351562 214.9375 204.824219 215.511719 206.816406 215.777344 C 207.492188 215.867188 208.175781 215.898438 208.855469 215.875 C 207.777344 216.421875 206.402344 216.730469 204.480469 216.460938 C 202.964844 217.851562 200.363281 218.585938 197.976562 218.496094 C 195.757812 218.410156 189.214844 215.90625 187.230469 215.128906 C 186.859375 214.984375 186.445312 214.984375 186.074219 215.128906 C 184.085938 215.90625 177.546875 218.410156 175.328125 218.496094 C 172.9375 218.585938 170.339844 217.851562 168.824219 216.460938 C 166.902344 216.730469 165.523438 216.421875 164.445312 215.875 C 165.125 215.898438 165.808594 215.867188 166.488281 215.777344 Z M 226.953125 201.359375 C 223.792969 195.328125 224.960938 185.253906 224.960938 185.253906 C 222.125 191.398438 214.9375 190.121094 213.078125 200.09375 C 213.078125 200.09375 218.300781 199.527344 219.230469 204.46875 L 219.226562 204.46875 C 219.195312 204.382812 219.160156 204.292969 219.121094 204.207031 C 218.957031 203.839844 218.746094 203.507812 218.503906 203.222656 C 216.710938 201.101562 213.003906 201.144531 211.269531 203.464844 C 211.996094 202.78125 213.015625 202.402344 214.117188 202.527344 C 215.742188 202.710938 217.050781 204.015625 217.238281 205.636719 C 217.320312 206.34375 217.191406 207.015625 216.90625 207.597656 C 216.835938 207.773438 216.75 207.945312 216.65625 208.113281 C 216.128906 209.046875 215.222656 209.753906 214.210938 210.125 C 214.070312 210.171875 213.941406 210.222656 213.796875 210.257812 C 213.65625 210.304688 213.507812 210.332031 213.363281 210.367188 C 213.292969 210.386719 213.214844 210.394531 213.144531 210.410156 L 213.03125 210.429688 C 212.988281 210.4375 212.941406 210.4375 212.898438 210.445312 C 212.820312 210.453125 212.742188 210.460938 212.664062 210.46875 C 212.582031 210.476562 212.5 210.480469 212.421875 210.488281 C 212.367188 210.492188 212.308594 210.492188 212.253906 210.492188 C 212.171875 210.492188 212.089844 210.5 212.007812 210.492188 C 211.929688 210.488281 211.855469 210.488281 211.777344 210.488281 C 211.703125 210.480469 211.628906 210.472656 211.550781 210.464844 C 211.476562 210.464844 211.402344 210.449219 211.328125 210.441406 L 211.214844 210.425781 C 211.195312 210.421875 211.179688 210.421875 211.15625 210.417969 L 211.089844 210.40625 C 211.066406 210.402344 211.042969 210.394531 211.019531 210.390625 C 213.699219 210.164062 214.101562 207.609375 214.101562 207.605469 C 214.0625 207.867188 213.582031 208.167969 213.390625 208.289062 C 212.550781 208.828125 211.492188 208.90625 210.515625 208.933594 C 204.398438 209.125 199.917969 193.410156 189.78125 195.199219 C 190.425781 194.667969 190.960938 194.699219 191.332031 194.074219 C 191.609375 193.609375 191.800781 192.207031 191.878906 191.625 C 191.898438 191.472656 191.71875 191.382812 191.613281 191.492188 C 190.394531 192.742188 188.625 193.699219 186.652344 193.699219 C 184.679688 193.699219 182.90625 192.742188 181.691406 191.492188 C 181.585938 191.382812 181.402344 191.472656 181.421875 191.625 C 181.503906 192.207031 181.691406 193.609375 181.972656 194.074219 C 182.34375 194.699219 182.878906 194.667969 183.523438 195.199219 C 173.386719 193.410156 168.90625 209.125 162.789062 208.933594 C 161.8125 208.90625 160.75 208.828125 159.914062 208.289062 C 159.722656 208.167969 159.242188 207.867188 159.199219 207.605469 C 159.199219 207.609375 159.605469 210.164062 162.285156 210.390625 C 162.261719 210.394531 162.238281 210.402344 162.214844 210.40625 L 162.148438 210.417969 C 162.125 210.421875 162.109375 210.421875 162.089844 210.425781 L 161.976562 210.441406 C 161.902344 210.449219 161.828125 210.464844 161.75 210.464844 C 161.675781 210.472656 161.601562 210.480469 161.523438 210.488281 C 161.449219 210.488281 161.371094 210.488281 161.296875 210.492188 C 161.214844 210.5 161.132812 210.492188 161.046875 210.492188 C 160.992188 210.492188 160.9375 210.492188 160.882812 210.488281 C 160.800781 210.480469 160.722656 210.476562 160.640625 210.46875 C 160.5625 210.460938 160.484375 210.453125 160.40625 210.445312 C 160.359375 210.4375 160.316406 210.4375 160.273438 210.429688 L 160.160156 210.410156 C 160.085938 210.394531 160.011719 210.386719 159.9375 210.367188 C 159.792969 210.332031 159.648438 210.304688 159.507812 210.257812 C 159.363281 210.222656 159.230469 210.171875 159.089844 210.125 C 158.082031 209.753906 157.175781 209.046875 156.648438 208.113281 C 156.554688 207.945312 156.46875 207.773438 156.394531 207.597656 C 156.113281 207.015625 155.984375 206.34375 156.066406 205.636719 C 156.253906 204.015625 157.5625 202.710938 159.183594 202.527344 C 160.289062 202.402344 161.304688 202.78125 162.035156 203.464844 C 160.296875 201.144531 156.59375 201.101562 154.800781 203.222656 C 154.554688 203.507812 154.347656 203.839844 154.183594 204.207031 C 154.144531 204.292969 154.109375 204.382812 154.074219 204.46875 C 155 199.527344 160.222656 200.09375 160.222656 200.09375 C 158.367188 190.121094 151.179688 191.398438 148.339844 185.253906 C 148.339844 185.253906 149.507812 195.328125 146.351562 201.359375 C 145.460938 203.058594 144.707031 204.617188 144.132812 206.109375 C 142.675781 209.914062 143.644531 214.484375 145.269531 218.71875 C 145.269531 218.71875 145.621094 214.238281 147.378906 211.019531 C 147.378906 211.019531 146.304688 214.601562 146.730469 219.652344 C 146.773438 220.164062 146.832031 220.691406 146.910156 221.230469 C 146.945312 221.476562 146.984375 221.726562 147.027344 221.976562 C 147.714844 226.03125 149.445312 230.730469 153.28125 235.207031 C 153.28125 235.207031 152.179688 231.507812 153.28125 227.945312 C 153.28125 227.945312 155.941406 239.867188 163.539062 245.898438 C 163.539062 245.898438 160.835938 241.832031 162.300781 237.355469 C 162.300781 237.355469 163.675781 246.855469 174.019531 253.617188 C 174.019531 253.617188 171 249.140625 172.738281 245.394531 C 173.195312 252.089844 184.195312 254.140625 187.335938 262.480469 C 187.335938 262.480469 192.453125 256.433594 191.746094 252.75 C 192.925781 256.066406 191.503906 258.824219 191.503906 258.824219 C 201.574219 250.511719 200.566406 245.394531 200.566406 245.394531 C 202.304688 249.140625 199.285156 253.617188 199.285156 253.617188 C 209.628906 246.855469 211 237.355469 211 237.355469 C 212.464844 241.832031 209.765625 245.898438 209.765625 245.898438 C 217.363281 239.867188 220.019531 227.945312 220.019531 227.945312 C 221.121094 231.507812 220.019531 235.207031 220.019531 235.207031 C 223.859375 230.730469 225.589844 226.03125 226.277344 221.976562 C 226.320312 221.726562 226.359375 221.476562 226.394531 221.230469 C 226.472656 220.691406 226.527344 220.164062 226.570312 219.652344 C 226.996094 214.601562 225.921875 211.019531 225.921875 211.019531 C 227.679688 214.238281 228.03125 218.71875 228.03125 218.71875 C 229.660156 214.484375 230.628906 209.914062 229.167969 206.109375 C 228.597656 204.617188 227.84375 203.058594 226.953125 201.359375 " fill-opacity="1" fill-rule="nonzero"/></g></svg>